<svg width="25" height="28" viewBox="0 0 25 28" fill="none" xmlns="http://www.w3.org/2000/svg">
<path d="M0.516385 14.1222C0.516385 12.119 0.531236 10.116 0.506196 8.11282C0.480923 7.85952 0.533366 7.60463 0.656176 7.38166C0.778987 7.15869 0.96656 6.97808 1.19415 6.86407C4.74763 4.82301 8.29396 2.7693 11.833 0.702645C12.0353 0.567935 12.2734 0.497112 12.5164 0.50009C12.7595 0.503069 12.9961 0.579727 13.195 0.719355C16.7151 2.77599 20.2417 4.81958 23.7752 6.85062C24.0045 6.96029 24.1956 7.13665 24.3233 7.35639C24.4511 7.57614 24.5098 7.82913 24.4916 8.08266C24.4727 12.1392 24.4727 16.1952 24.4916 20.2506C24.5097 20.5039 24.4506 20.7564 24.3225 20.9757C24.1944 21.1949 24.003 21.3703 23.7735 21.479C20.2401 23.5112 16.714 25.5557 13.195 27.6123C12.9839 27.7535 12.7349 27.8275 12.481 27.8242C12.2271 27.8209 11.98 27.7405 11.7727 27.594C8.27259 25.5485 4.76688 23.5161 1.25569 21.4973C1.01516 21.3851 0.814834 21.2023 0.681445 20.9728C0.548055 20.7433 0.488367 20.4785 0.509864 20.2139C0.536573 18.179 0.516385 16.1538 0.516385 14.1222ZM2.97843 7.70363C3.17708 7.84386 3.2623 7.91427 3.35745 7.96936C6.27046 9.64705 9.18037 11.3348 12.1117 12.9774C12.2568 13.0312 12.4114 13.0531 12.5658 13.0422C12.7201 13.0313 12.8703 12.9876 13.0063 12.9138C15.8192 11.3296 18.6155 9.71355 21.415 8.10263C21.5953 7.99913 21.7638 7.87083 21.9758 7.72727C21.891 7.65192 21.802 7.58132 21.7089 7.51656C18.7625 5.80381 15.8193 4.08611 12.8612 2.40174C12.7258 2.35189 12.5809 2.33159 12.437 2.34224C12.293 2.35289 12.1532 2.39444 12.0266 2.46369C10.4307 3.35178 8.85481 4.27988 7.27895 5.19635C5.87503 6.01433 4.47595 6.83223 2.97354 7.70363H2.97843ZM22.0378 20.6044C21.7389 20.4141 21.5366 20.2807 21.338 20.1622C19.4249 19.0638 17.5113 17.9667 15.5972 16.8716C14.9578 16.506 14.7626 16.0369 15.0514 15.5845C15.3185 15.1538 15.7757 15.1172 16.4017 15.4761C18.0443 16.4176 19.6872 17.3599 21.3298 18.3025C21.8056 18.5746 22.2879 18.8367 22.8321 19.1372V9.21118C22.7116 9.25512 22.5936 9.30542 22.4783 9.36157C19.5586 11.0309 16.6355 12.7 13.7342 14.3977C13.614 14.4954 13.5161 14.618 13.4473 14.7568C13.3785 14.8956 13.3402 15.0474 13.3352 15.2022C13.3085 18.4558 13.3168 21.7129 13.3201 24.9648C13.3201 25.1501 13.3553 25.3355 13.3854 25.6226L22.0378 20.6044ZM2.17228 9.16431V19.1221C2.43437 18.9886 2.63292 18.8968 2.81989 18.7883C4.75299 17.681 6.68526 16.5722 8.61614 15.4627C9.23046 15.1104 9.7059 15.1658 9.95129 15.6098C10.1967 16.0538 10.0232 16.5077 9.42228 16.8532C7.50921 17.9517 5.59564 19.0493 3.68146 20.1455C3.46277 20.2707 3.2558 20.414 2.95031 20.6093L11.6308 25.6393C11.6492 25.3055 11.6708 25.0851 11.6708 24.8731C11.6708 21.6863 11.6592 18.4978 11.6842 15.3111C11.7055 15.094 11.6582 14.8756 11.5485 14.6871C11.4388 14.4986 11.2725 14.3495 11.0733 14.2608C8.91649 13.0505 6.77984 11.8068 4.63473 10.5765C3.84847 10.1141 3.04189 9.65677 2.17717 9.16431H2.17228Z" fill="#C1B494"/>
</svg>
