<svg width="27" height="28" viewBox="0 0 27 28" fill="none" xmlns="http://www.w3.org/2000/svg">
<path d="M22.7812 6.40625V5.5625C22.7793 4.89177 22.512 4.24907 22.0377 3.77479C21.5634 3.30051 20.9207 3.0332 20.25 3.03125H3.375C2.70427 3.0332 2.06157 3.30051 1.58729 3.77479C1.11301 4.24907 0.845698 4.89177 0.84375 5.5625V19.0625C0.845698 19.7332 1.11301 20.3759 1.58729 20.8502C2.06157 21.3245 2.70427 21.5918 3.375 21.5938H4.21875" stroke="white" stroke-width="1.5" stroke-linejoin="round"/>
<path d="M23.731 7.25H7.48775C6.14832 7.25 5.0625 8.33582 5.0625 9.67525V22.5435C5.0625 23.8829 6.14832 24.9688 7.48775 24.9688H23.731C25.0704 24.9688 26.1562 23.8829 26.1562 22.5435V9.67525C26.1562 8.33582 25.0704 7.25 23.731 7.25Z" stroke="white" stroke-width="1.5" stroke-linejoin="round"/>
<path d="M19.6651 13.6936C20.5613 13.6936 21.2878 12.9723 21.2878 12.0826C21.2878 11.1928 20.5613 10.4716 19.6651 10.4716C18.769 10.4716 18.0425 11.1928 18.0425 12.0826C18.0425 12.9723 18.769 13.6936 19.6651 13.6936Z" stroke="white" stroke-width="1.5" stroke-miterlimit="10"/>
<path d="M18.0431 20.1262L13.4473 15.5704C13.1535 15.2802 12.7605 15.1122 12.3477 15.1003C11.9348 15.0885 11.5329 15.2337 11.2229 15.5066L5.0625 20.942M13.9867 24.9688L20.2405 18.7603C20.5283 18.4765 20.911 18.3094 21.3148 18.2912C21.7185 18.273 22.1147 18.405 22.4269 18.6617L26.1562 21.7472" stroke="white" stroke-width="1.5" stroke-linecap="round" stroke-linejoin="round"/>
</svg>
